<svg xmlns="http://www.w3.org/2000/svg" xmlns:xlink="http://www.w3.org/1999/xlink" width="500" zoomAndPan="magnify" viewBox="0 0 375 374.999991" height="500" preserveAspectRatio="xMidYMid meet" version="1.2"><defs/><g id="ad001fbf38"><g style="fill:#ffffff;fill-opacity:1;"><g transform="translate(10.013897, 218.864001)"><path style="stroke:none" d="M 16.265625 -41.5625 C 15.722656 -41.03125 15.453125 -40.378906 15.453125 -39.609375 L 15.453125 -34.578125 L 46.265625 -34.578125 C 46.710938 -34.578125 47.109375 -34.40625 47.453125 -34.0625 C 47.796875 -33.71875 47.96875 -33.316406 47.96875 -32.859375 L 47.96875 -24.96875 C 47.96875 -24.507812 47.796875 -24.109375 47.453125 -23.765625 C 47.109375 -23.421875 46.710938 -23.25 46.265625 -23.25 L 15.453125 -23.25 L 15.453125 -17.40625 C 15.453125 -17.019531 15.566406 -16.640625 15.796875 -16.265625 L 19.8125 -11.90625 C 20.34375 -11.375 20.988281 -11.109375 21.75 -11.109375 L 51.875 -11.109375 C 52.332031 -11.109375 52.734375 -10.9375 53.078125 -10.59375 C 53.421875 -10.25 53.59375 -9.847656 53.59375 -9.390625 L 53.59375 -1.71875 C 53.59375 -1.257812 53.421875 -0.859375 53.078125 -0.515625 C 52.734375 -0.171875 52.332031 0 51.875 0 L 17.296875 0 C 16.148438 0 15.15625 -0.421875 14.3125 -1.265625 L 4.8125 -10.53125 C 3.894531 -11.445312 3.4375 -12.59375 3.4375 -13.96875 L 3.4375 -43.515625 C 3.4375 -44.117188 3.585938 -44.6875 3.890625 -45.21875 C 4.191406 -45.757812 4.5 -46.179688 4.8125 -46.484375 L 14.3125 -55.875 C 15.226562 -56.789062 16.335938 -57.25 17.640625 -57.25 L 51.875 -57.25 C 52.332031 -57.25 52.734375 -57.078125 53.078125 -56.734375 C 53.421875 -56.390625 53.59375 -55.988281 53.59375 -55.53125 L 53.59375 -47.625 C 53.59375 -47.164062 53.421875 -46.765625 53.078125 -46.421875 C 52.734375 -46.085938 52.332031 -45.921875 51.875 -45.921875 L 21.640625 -45.921875 C 21.109375 -45.921875 20.535156 -45.613281 19.921875 -45 Z M 16.265625 -41.5625 "/></g></g><g style="fill:#ffffff;fill-opacity:1;"><g transform="translate(67.028358, 218.864001)"><path style="stroke:none" d="M 59.546875 -53.125 C 60.003906 -53.125 60.398438 -52.953125 60.734375 -52.609375 C 61.078125 -52.265625 61.25 -51.863281 61.25 -51.40625 L 61.25 -42.828125 C 61.25 -42.367188 61.078125 -41.96875 60.734375 -41.625 C 60.398438 -41.28125 60.003906 -41.109375 59.546875 -41.109375 L 38.46875 -41.109375 L 38.46875 -1.71875 C 38.46875 -1.257812 38.296875 -0.859375 37.953125 -0.515625 C 37.609375 -0.171875 37.207031 0 36.75 0 L 28.171875 0 C 27.710938 0 27.3125 -0.171875 26.96875 -0.515625 C 26.625 -0.859375 26.453125 -1.257812 26.453125 -1.71875 L 26.453125 -41.109375 L 5.15625 -41.109375 C 4.695312 -41.109375 4.296875 -41.28125 3.953125 -41.625 C 3.609375 -41.96875 3.4375 -42.367188 3.4375 -42.828125 L 3.4375 -51.40625 C 3.4375 -51.863281 3.609375 -52.265625 3.953125 -52.609375 C 4.296875 -52.953125 4.695312 -53.125 5.15625 -53.125 Z M 59.546875 -53.125 "/></g></g><g style="fill:#ffffff;fill-opacity:1;"><g transform="translate(131.713501, 218.864001)"><path style="stroke:none" d="M 51.875 -53.125 C 52.332031 -53.125 52.734375 -52.953125 53.078125 -52.609375 C 53.421875 -52.265625 53.59375 -51.863281 53.59375 -51.40625 L 53.59375 -1.71875 C 53.59375 -1.257812 53.421875 -0.859375 53.078125 -0.515625 C 52.734375 -0.171875 52.332031 0 51.875 0 L 43.28125 0 C 42.820312 0 42.421875 -0.171875 42.078125 -0.515625 C 41.734375 -0.859375 41.5625 -1.257812 41.5625 -1.71875 L 41.5625 -20.953125 L 15.453125 -20.953125 L 15.453125 -1.71875 C 15.453125 -1.257812 15.28125 -0.859375 14.9375 -0.515625 C 14.59375 -0.171875 14.191406 0 13.734375 0 L 5.15625 0 C 4.695312 0 4.296875 -0.171875 3.953125 -0.515625 C 3.609375 -0.859375 3.4375 -1.257812 3.4375 -1.71875 L 3.4375 -51.40625 C 3.4375 -51.863281 3.609375 -52.265625 3.953125 -52.609375 C 4.296875 -52.953125 4.695312 -53.125 5.15625 -53.125 L 13.734375 -53.125 C 14.191406 -53.125 14.59375 -52.953125 14.9375 -52.609375 C 15.28125 -52.265625 15.453125 -51.863281 15.453125 -51.40625 L 15.453125 -32.28125 L 41.5625 -32.28125 L 41.5625 -51.40625 C 41.5625 -51.863281 41.734375 -52.265625 42.078125 -52.609375 C 42.421875 -52.953125 42.820312 -53.125 43.28125 -53.125 Z M 51.875 -53.125 "/></g></g><g style="fill:#ffffff;fill-opacity:1;"><g transform="translate(188.727963, 218.864001)"><path style="stroke:none" d="M 54.046875 -41.453125 C 54.878906 -40.609375 55.296875 -39.613281 55.296875 -38.46875 L 55.296875 -1.71875 C 55.296875 -1.257812 55.125 -0.859375 54.78125 -0.515625 C 54.4375 -0.171875 54.039062 0 53.59375 0 L 45.921875 0 C 45.460938 0 45.0625 -0.171875 44.71875 -0.515625 C 44.375 -0.859375 44.203125 -1.257812 44.203125 -1.71875 L 44.203125 -12.59375 L 14.546875 -12.59375 L 14.546875 -1.71875 C 14.546875 -1.257812 14.375 -0.859375 14.03125 -0.515625 C 13.6875 -0.171875 13.285156 0 12.828125 0 L 5.15625 0 C 4.695312 0 4.296875 -0.171875 3.953125 -0.515625 C 3.609375 -0.859375 3.4375 -1.257812 3.4375 -1.71875 L 3.4375 -38.46875 C 3.4375 -39.613281 3.851562 -40.609375 4.6875 -41.453125 L 14.765625 -51.75 C 15.679688 -52.664062 16.828125 -53.125 18.203125 -53.125 L 40.53125 -53.125 C 41.90625 -53.125 43.050781 -52.664062 43.96875 -51.75 Z M 14.546875 -22.5625 L 44.203125 -22.5625 L 44.203125 -35.5 C 44.203125 -36.257812 43.929688 -36.90625 43.390625 -37.4375 L 39.734375 -40.875 L 39.046875 -41.453125 C 38.742188 -41.679688 38.363281 -41.796875 37.90625 -41.796875 L 20.84375 -41.796875 C 20.300781 -41.796875 19.914062 -41.679688 19.6875 -41.453125 L 19 -40.875 L 15.34375 -37.4375 C 14.8125 -36.90625 14.546875 -36.257812 14.546875 -35.5 Z M 14.546875 -22.5625 "/></g></g><g style="fill:#ffffff;fill-opacity:1;"><g transform="translate(247.459771, 218.864001)"><path style="stroke:none" d="M 55.296875 -24.734375 C 55.296875 -24.203125 55.160156 -23.664062 54.890625 -23.125 C 54.628906 -22.59375 54.304688 -22.132812 53.921875 -21.75 L 46.9375 -14.765625 L 54.734375 -2.40625 C 55.109375 -1.875 55.144531 -1.335938 54.84375 -0.796875 C 54.539062 -0.265625 54.046875 0 53.359375 0 L 44.765625 0 C 44.078125 0 43.503906 -0.34375 43.046875 -1.03125 L 37.4375 -10.078125 L 14.765625 -10.078125 L 14.765625 -1.71875 C 14.765625 -1.257812 14.59375 -0.859375 14.25 -0.515625 C 13.90625 -0.171875 13.503906 0 13.046875 0 L 5.15625 0 C 4.695312 0 4.296875 -0.171875 3.953125 -0.515625 C 3.609375 -0.859375 3.4375 -1.257812 3.4375 -1.71875 L 3.4375 -51.40625 C 3.4375 -51.863281 3.609375 -52.265625 3.953125 -52.609375 C 4.296875 -52.953125 4.695312 -53.125 5.15625 -53.125 L 40.640625 -53.125 C 41.785156 -53.125 42.78125 -52.707031 43.625 -51.875 L 53.921875 -41.796875 C 54.835938 -40.878906 55.296875 -39.734375 55.296875 -38.359375 Z M 14.765625 -42.015625 L 14.765625 -21.40625 L 37.09375 -21.40625 C 37.632812 -21.40625 38.207031 -21.710938 38.8125 -22.328125 L 42.484375 -25.765625 C 43.015625 -26.296875 43.28125 -26.941406 43.28125 -27.703125 L 43.28125 -35.71875 C 43.28125 -36.175781 43.164062 -36.5625 42.9375 -36.875 L 42.359375 -37.5625 L 38.9375 -41.21875 C 38.394531 -41.75 37.742188 -42.015625 36.984375 -42.015625 Z M 14.765625 -42.015625 "/></g></g><g style="fill:#ffffff;fill-opacity:1;"><g transform="translate(306.191579, 218.864001)"><path style="stroke:none" d="M 3.4375 -33.3125 L 3.4375 -40.53125 C 3.4375 -41.144531 3.585938 -41.71875 3.890625 -42.25 C 4.191406 -42.78125 4.5 -43.203125 4.8125 -43.515625 L 13.171875 -51.75 C 14.085938 -52.664062 15.191406 -53.125 16.484375 -53.125 L 50.5 -53.125 C 50.957031 -53.125 51.359375 -52.953125 51.703125 -52.609375 C 52.046875 -52.265625 52.21875 -51.863281 52.21875 -51.40625 L 52.21875 -43.515625 C 52.21875 -43.054688 52.046875 -42.65625 51.703125 -42.3125 C 51.359375 -41.96875 50.957031 -41.796875 50.5 -41.796875 L 19.6875 -41.796875 C 19.3125 -41.796875 18.738281 -41.488281 17.96875 -40.875 L 16.265625 -39.5 C 15.722656 -38.96875 15.453125 -38.320312 15.453125 -37.5625 L 15.453125 -35.953125 C 15.453125 -35.566406 15.566406 -35.1875 15.796875 -34.8125 L 17.515625 -32.75 C 18.046875 -32.21875 18.695312 -31.953125 19.46875 -31.953125 L 44.078125 -31.953125 C 44.691406 -31.953125 45.242188 -31.835938 45.734375 -31.609375 C 46.234375 -31.378906 46.675781 -31.070312 47.0625 -30.6875 L 53.921875 -24.046875 C 54.835938 -23.285156 55.296875 -22.140625 55.296875 -20.609375 L 55.296875 -12.359375 C 55.296875 -11.828125 55.160156 -11.296875 54.890625 -10.765625 C 54.628906 -10.234375 54.304688 -9.773438 53.921875 -9.390625 L 45.921875 -1.375 C 45.003906 -0.457031 43.894531 0 42.59375 0 L 7.09375 0 C 6.632812 0 6.234375 -0.171875 5.890625 -0.515625 C 5.546875 -0.859375 5.375 -1.257812 5.375 -1.71875 L 5.375 -9.625 C 5.375 -10.082031 5.546875 -10.476562 5.890625 -10.8125 C 6.234375 -11.15625 6.632812 -11.328125 7.09375 -11.328125 L 39.390625 -11.328125 C 39.765625 -11.328125 40.335938 -11.632812 41.109375 -12.25 L 42.484375 -13.390625 C 43.015625 -13.929688 43.28125 -14.582031 43.28125 -15.34375 L 43.28125 -16.828125 C 43.28125 -17.285156 43.164062 -17.664062 42.9375 -17.96875 L 41.21875 -20.03125 C 40.6875 -20.570312 40.039062 -20.84375 39.28125 -20.84375 L 15.796875 -20.84375 C 15.265625 -20.84375 14.726562 -20.972656 14.1875 -21.234375 C 13.65625 -21.503906 13.203125 -21.789062 12.828125 -22.09375 L 4.8125 -29.890625 C 3.894531 -30.804688 3.4375 -31.945312 3.4375 -33.3125 Z M 3.4375 -33.3125 "/></g></g></g></svg>